<svg width="20" height="20" viewBox="0 0 20 20" fill="none" xmlns="http://www.w3.org/2000/svg">
<g opacity="0.8">
<path d="M16.3607 6.66461C16.3715 6.81044 16.3715 6.95544 16.3715 7.10044C16.3715 11.5379 12.994 16.6513 6.8215 16.6513C4.91984 16.6513 3.15317 16.1004 1.6665 15.1438C1.9365 15.1746 2.1965 15.1854 2.47734 15.1854C3.98816 15.1891 5.45621 14.6839 6.64484 13.7513C5.94436 13.7386 5.26532 13.5075 4.70254 13.0902C4.13975 12.673 3.72132 12.0904 3.50567 11.4238C3.71317 11.4546 3.9215 11.4754 4.13984 11.4754C4.44067 11.4754 4.74317 11.4338 5.024 11.3613C4.2638 11.2078 3.58023 10.7957 3.08952 10.1952C2.59881 9.59463 2.33125 8.84265 2.33234 8.06711V8.02544C2.77984 8.27461 3.299 8.43044 3.849 8.45128C3.38824 8.1451 3.01044 7.72963 2.74929 7.24194C2.48814 6.75424 2.35176 6.20949 2.35234 5.65628C2.35234 5.03294 2.51817 4.46128 2.809 3.96294C3.65245 5.00046 4.70442 5.84924 5.89678 6.45432C7.08914 7.05941 8.3953 7.40729 9.73067 7.47544C9.679 7.22544 9.64734 6.96628 9.64734 6.70628C9.64712 6.26541 9.73379 5.82882 9.9024 5.42148C10.071 5.01413 10.3183 4.64401 10.63 4.33227C10.9417 4.02053 11.3119 3.77329 11.7192 3.60467C12.1266 3.43606 12.5631 3.34939 13.004 3.34961C13.9707 3.34961 14.8432 3.75461 15.4565 4.40961C16.208 4.26429 16.9286 3.98996 17.5865 3.59878C17.336 4.37446 16.8113 5.0322 16.1107 5.44878C16.7772 5.37276 17.4285 5.19749 18.0432 4.92878C17.5841 5.59802 17.0153 6.1849 16.3607 6.66461Z" fill="#0A0A0B"/>
</g>
</svg>
